# xmcd
#
# Track frame offsets:
#	182
#	12175
#	23867
#	43337
#	60545
#	72907
#	85892
#	110740
#	146525
#
# Disc length: 2131 seconds
# Revision: 8
# Processed by: cddbd v1.5.2PL0 Copyright (c) Steve Scherf et al.
# Submitted via: dBpowerAMP V12.0
#
DISCID=7a085109
DTITLE=Canned Heat - Future Blues
DYEAR=1970
DGENRE=Pop/Rock
TTITLE0=Sugar Bee
TTITLE1=Shake It and Break It
TTITLE2=That's All Right, Mama
TTITLE3=My Time Ain't Long
TTITLE4=Skat
TTITLE5=Let's Work Together
TTITLE6=London Blues
TTITLE7=So Sad (The World's in a Tangle)
TTITLE8=Future Blues
EXTD=
EXTT0=
EXTT1=
EXTT2=
EXTT3=
EXTT4=
EXTT5=
EXTT6=
EXTT7=
EXTT8=
PLAYORDER=
